<svg width="60" height="60" viewBox="0 0 60 60" fill="none" xmlns="http://www.w3.org/2000/svg">
<g clip-path="url(#clip0_7_2)">
<path d="M43 47H32.2273V12.0909H43.4773C46.8636 12.0909 49.7614 12.7898 52.1705 14.1875C54.5795 15.5739 56.4261 17.5682 57.7102 20.1705C58.9943 22.7614 59.6364 25.8636 59.6364 29.4773C59.6364 33.1136 58.9886 36.2443 57.6932 38.8693C56.3977 41.483 54.5114 43.4943 52.0341 44.9034C49.5568 46.3011 46.5455 47 43 47ZM36.4545 43.25H42.7273C45.6136 43.25 48.0057 42.6932 49.9034 41.5795C51.8011 40.4659 53.2159 38.8807 54.1477 36.8239C55.0795 34.767 55.5455 32.3182 55.5455 29.4773C55.5455 26.6591 55.0852 24.233 54.1648 22.1989C53.2443 20.1534 51.8693 18.5852 50.0398 17.4943C48.2102 16.392 45.9318 15.8409 43.2045 15.8409H36.4545V43.25Z" fill="white"/>
<path d="M17 47H27.7727V12.0909H16.5227C13.1364 12.0909 10.2386 12.7898 7.82955 14.1875C5.42045 15.5739 3.57386 17.5682 2.28977 20.1705C1.00568 22.7614 0.363635 25.8636 0.363635 29.4773C0.363635 33.1136 1.01136 36.2443 2.30682 38.8693C3.60227 41.483 5.48864 43.4943 7.96591 44.9034C10.4432 46.3011 13.4545 47 17 47ZM23.5455 43.25H17.2727C14.3864 43.25 11.9943 42.6932 10.0966 41.5795C8.19886 40.4659 6.78409 38.8807 5.85227 36.8239C4.92045 34.767 4.45455 32.3182 4.45455 29.4773C4.45455 26.6591 4.91477 24.233 5.83523 22.1989C6.75568 20.1534 8.13068 18.5852 9.96023 17.4943C11.7898 16.392 14.0682 15.8409 16.7955 15.8409H23.5455V43.25Z" fill="white"/>
<path d="M13 43V32.2273H47.9091V43.4773C47.9091 46.8636 47.2102 49.7614 45.8125 52.1705C44.4261 54.5795 42.4318 56.4261 39.8295 57.7102C37.2386 58.9943 34.1364 59.6364 30.5227 59.6364C26.8864 59.6364 23.7557 58.9886 21.1307 57.6932C18.517 56.3977 16.5057 54.5114 15.0966 52.0341C13.6989 49.5568 13 46.5455 13 43ZM16.75 36.4545V42.7273C16.75 45.6136 17.3068 48.0057 18.4205 49.9034C19.5341 51.8011 21.1193 53.2159 23.1761 54.1477C25.233 55.0795 27.6818 55.5455 30.5227 55.5455C33.3409 55.5455 35.767 55.0852 37.8011 54.1648C39.8466 53.2443 41.4148 51.8693 42.5057 50.0398C43.608 48.2102 44.1591 45.9318 44.1591 43.2045V36.4545H16.75Z" fill="white"/>
<path d="M13 17V27.7727H47.9091V16.5227C47.9091 13.1364 47.2102 10.2386 45.8125 7.82955C44.4261 5.42045 42.4318 3.57386 39.8295 2.28977C37.2386 1.00568 34.1364 0.363635 30.5227 0.363635C26.8864 0.363635 23.7557 1.01136 21.1307 2.30682C18.517 3.60227 16.5057 5.48864 15.0966 7.96591C13.6989 10.4432 13 13.4545 13 17ZM16.75 23.5455V17.2727C16.75 14.3864 17.3068 11.9943 18.4205 10.0966C19.5341 8.19886 21.1193 6.78409 23.1761 5.85227C25.233 4.92045 27.6818 4.45455 30.5227 4.45455C33.3409 4.45455 35.767 4.91477 37.8011 5.83523C39.8466 6.75568 41.4148 8.13068 42.5057 9.96023C43.608 11.7898 44.1591 14.0682 44.1591 16.7955V23.5455H16.75Z" fill="white"/>
</g>
<defs>
<clipPath id="clip0_7_2">
<rect width="60" height="60" fill="white"/>
</clipPath>
</defs>
</svg>
