<svg width="500" height="400" viewBox="0 0 500 400" fill="none" xmlns="http://www.w3.org/2000/svg">
<path d="M326.75 309H259.42V90.8182H329.733C350.898 90.8182 369.009 95.1861 384.065 103.922C399.122 112.587 410.663 125.051 418.689 141.315C426.714 157.509 430.727 176.898 430.727 199.483C430.727 222.21 426.679 241.777 418.582 258.183C410.486 274.518 398.696 287.089 383.213 295.896C367.73 304.632 348.909 309 326.75 309ZM285.841 285.562H325.045C343.085 285.562 358.036 282.082 369.896 275.122C381.757 268.162 390.599 258.254 396.423 245.399C402.247 232.544 405.159 217.239 405.159 199.483C405.159 181.869 402.283 166.706 396.53 153.993C390.777 141.209 382.183 131.408 370.749 124.589C359.314 117.7 345.074 114.256 328.028 114.256H285.841V285.562Z" fill="#353252"/>
<path d="M172.25 309H239.58V90.8182H169.267C148.102 90.8182 129.991 95.1861 114.935 103.922C99.8778 112.587 88.3366 125.051 80.3111 141.315C72.2855 157.509 68.2727 176.898 68.2727 199.483C68.2727 222.21 72.321 241.777 80.4176 258.183C88.5142 274.518 100.304 287.089 115.787 295.896C131.27 304.632 150.091 309 172.25 309ZM213.159 285.562H173.955C155.915 285.562 140.964 282.082 129.104 275.122C117.243 268.162 108.401 258.254 102.577 245.399C96.7528 232.544 93.8409 217.239 93.8409 199.483C93.8409 181.869 96.7173 166.706 102.47 153.993C108.223 141.209 116.817 131.408 128.251 124.589C139.686 117.7 153.926 114.256 170.972 114.256H213.159V285.562Z" fill="#353252"/>
<path d="M140 273.75V206.42H358.182V276.733C358.182 297.898 353.814 316.009 345.078 331.065C336.413 346.122 323.949 357.663 307.685 365.689C291.491 373.714 272.102 377.727 249.517 377.727C226.79 377.727 207.223 373.679 190.817 365.582C174.482 357.486 161.911 345.696 153.104 330.213C144.368 314.73 140 295.909 140 273.75ZM163.438 232.841V272.045C163.438 290.085 166.918 305.036 173.878 316.896C180.838 328.757 190.746 337.599 203.601 343.423C216.456 349.247 231.761 352.159 249.517 352.159C267.131 352.159 282.294 349.283 295.007 343.53C307.791 337.777 317.592 329.183 324.411 317.749C331.3 306.314 334.744 292.074 334.744 275.028V232.841H163.438Z" fill="#353252"/>
<path d="M140 126.25V193.58H358.182V123.267C358.182 102.102 353.814 83.9915 345.078 68.9347C336.413 53.8778 323.949 42.3366 307.685 34.3111C291.491 26.2855 272.102 22.2727 249.517 22.2727C226.79 22.2727 207.223 26.321 190.817 34.4176C174.482 42.5142 161.911 54.304 153.104 69.7869C144.368 85.2699 140 104.091 140 126.25ZM163.438 167.159V127.955C163.438 109.915 166.918 94.9645 173.878 83.1037C180.838 71.2429 190.746 62.4006 203.601 56.5767C216.456 50.7528 231.761 47.8409 249.517 47.8409C267.131 47.8409 282.294 50.7173 295.007 56.4702C307.791 62.223 317.592 70.8168 324.411 82.2514C331.3 93.6861 334.744 107.926 334.744 124.972V167.159H163.438Z" fill="#353252"/>
</svg>
