<svg width="500" height="400" viewBox="0 0 500 400" fill="none" xmlns="http://www.w3.org/2000/svg">
<circle cx="250" cy="200" r="140" stroke="#353252" stroke-width="20"/>
<circle cx="250" cy="200" r="82" stroke="#353252" stroke-width="16"/>
<circle cx="250" cy="200" r="29.5" fill="#353252" stroke="#353252"/>
<rect x="220.5" y="330.5" width="59" height="39" rx="9.5" fill="#353252" stroke="#353252"/>
<rect x="136.58" y="268.704" width="59" height="39" rx="9.5" transform="rotate(50 136.58 268.704)" fill="#353252" stroke="#353252"/>
<rect x="324.704" y="313.901" width="59" height="39" rx="9.5" transform="rotate(-50 324.704 313.901)" fill="#353252" stroke="#353252"/>
<rect x="-0.0616284" y="-0.704416" width="59" height="39" rx="9.5" transform="matrix(0.642788 -0.766044 -0.766044 -0.642788 136.08 128.47)" fill="#353252" stroke="#353252"/>
<rect x="0.704416" y="0.0616284" width="59" height="39" rx="9.5" transform="matrix(0.642788 0.766044 0.766044 -0.642788 324.204 83.2731)" fill="#353252" stroke="#353252"/>
<rect x="119.5" y="170.5" width="59" height="39" rx="9.5" transform="rotate(90 119.5 170.5)" fill="#353252" stroke="#353252"/>
<rect x="419.5" y="170.5" width="59" height="39" rx="9.5" transform="rotate(90 419.5 170.5)" fill="#353252" stroke="#353252"/>
<rect x="220.5" y="30.5" width="59" height="39" rx="9.5" fill="#353252" stroke="#353252"/>
</svg>
